<?xml version="1.0" standalone="no"?>
<!DOCTYPE svg PUBLIC "-//W3C//DTD SVG 20010904//EN"
 "http://www.w3.org/TR/2001/REC-SVG-20010904/DTD/svg10.dtd">
<svg version="1.0" xmlns="http://www.w3.org/2000/svg"
 width="411.000000pt" height="411.000000pt" viewBox="0 0 411.000000 411.000000"
 preserveAspectRatio="xMidYMid meet">
<g transform="translate(0.000000,411.000000) scale(0.100000,-0.100000)"
fill="#000000" stroke="none">
<path d="M1627 3181 c-1 -3 -2 -26 -2 -51 l0 -45 53 0 53 1 -3 -111 -3 -110
-105 0 -105 0 -3 51 -3 50 -44 1 c-24 1 -48 3 -53 7 -5 3 -8 28 -7 54 l2 49
-55 -1 -56 -1 1 -98 c1 -54 4 -101 7 -104 3 -3 28 -6 56 -6 l50 1 0 -58 0 -57
-167 1 -167 1 1 55 0 56 -51 -1 -51 0 -1 40 c-1 22 -2 45 -3 51 -1 13 -92 15
-101 2 -8 -10 -4 -187 4 -195 3 -4 28 -7 54 -7 l47 -1 0 -53 0 -52 108 0 107
0 0 -55 0 -55 -32 0 c-41 -1 -477 -1 -498 0 -13 0 -16 12 -15 53 l0 52 -50 0
-50 0 -1 48 c-1 27 -4 50 -5 52 -6 5 -39 7 -75 6 l-32 -1 2 -102 1 -103 55 -5
55 -5 0 -47 c-1 -32 3 -48 12 -49 7 -1 55 -2 106 -3 l92 -1 3 -57 3 -58 -215
0 -215 0 -3 57 -3 58 -56 -2 c-50 -1 -55 1 -56 20 0 12 -1 36 -2 52 l-1 31
-102 -1 -103 0 -3 -51 -3 -50 56 2 55 1 1 -31 c1 -17 1 -44 1 -59 0 -16 4 -27
11 -26 7 1 30 1 53 0 l41 -1 -1 -47 -1 -48 165 -5 164 -5 1 -52 c0 -29 -4 -54
-10 -56 -5 -1 -54 -2 -107 -1 l-98 1 0 -54 0 -53 -55 0 c-37 0 -55 -4 -56 -12
-1 -7 -2 -31 -3 -53 l-1 -40 -107 -3 -108 -3 0 -49 c0 -54 -1 -54 73 -50 30 1
37 -2 38 -17 0 -10 1 -36 2 -58 l2 -40 108 0 107 1 0 -53 0 -53 50 0 50 0 0
-55 0 -55 110 0 110 0 0 -52 0 -53 55 1 55 2 0 -58 0 -57 158 0 157 1 3 -52 3
-52 165 0 164 0 0 -55 0 -55 33 0 c17 -1 89 -1 160 -1 l127 -1 0 -59 0 -59
270 0 270 0 0 60 0 59 83 0 c148 -1 134 -6 133 54 l-1 52 108 3 107 3 0 49 c0
33 4 50 13 51 6 0 78 1 160 1 l147 0 0 57 0 56 110 0 109 0 -1 30 c-2 82 -18
75 165 75 l163 0 -1 55 -1 55 108 0 107 0 3 53 3 52 160 0 160 0 3 56 3 55
-107 0 c-58 -1 -109 1 -113 4 -3 3 -6 25 -6 50 l0 45 -52 3 -53 3 0 55 0 54
-55 0 -55 0 0 54 0 54 93 0 c50 0 99 0 108 1 12 1 15 12 14 56 l-2 55 41 1
c23 1 48 1 57 0 12 -1 15 9 14 46 l-1 48 -108 3 -108 3 3 -48 3 -48 -107 -3
-107 -3 -1 -27 c-1 -15 -2 -40 -3 -57 l-1 -30 -95 -1 c-52 0 -101 2 -107 4 -8
3 -13 24 -13 59 l0 54 -50 -2 c-27 -2 -53 0 -56 4 -4 4 -7 26 -7 49 l0 43 56
3 56 3 3 57 3 57 98 1 c54 1 101 4 104 8 11 11 10 85 -1 89 -6 2 -79 4 -163 5
l-152 2 -3 -53 -3 -52 -105 0 -105 0 -3 51 -3 52 -44 -1 c-25 0 -48 2 -52 6
-6 7 -6 97 0 104 2 1 49 4 105 5 l102 3 0 48 0 47 -62 1 c-35 0 -107 1 -161 2
l-97 2 -1 -25 c-1 -14 0 -37 1 -52 1 -27 0 -28 -54 -28 l-56 0 0 108 0 109 43
0 c23 1 47 1 52 2 6 1 10 24 11 51 l1 50 -108 0 -108 0 -3 -52 -3 -53 -145 -1
c-80 0 -151 2 -157 4 -8 3 -13 23 -13 53 l0 49 -166 0 -166 0 2 28 c6 79 4 81
-52 84 l-53 3 1 50 2 51 -105 0 c-57 0 -105 -2 -106 -5z m690 -530 l62 -1 -2
-52 -1 -53 44 -1 c25 -1 73 -2 108 -3 l62 -1 0 -50 c0 -33 4 -50 13 -51 6 -1
32 -2 57 -3 l45 -1 0 -55 c0 -54 1 -55 30 -56 17 -1 40 -2 53 -2 l22 -2 -2
-267 -3 -268 -30 -1 c-77 -4 -70 5 -72 -96 -1 -51 -2 -99 -2 -105 -1 -9 -19
-13 -56 -13 l-54 0 -3 -57 -3 -58 -47 1 -48 0 0 -52 0 -53 -87 0 c-141 1 -130
5 -128 -45 1 -25 -1 -49 -4 -55 -6 -8 -296 -16 -489 -12 l-64 1 3 45 c2 25 -1
49 -7 55 -5 5 -53 10 -107 11 l-97 1 0 53 0 52 -50 -1 c-54 -1 -52 -4 -52 71
l0 42 -56 3 -57 3 -1 98 c-1 54 -5 101 -8 105 -4 3 -26 6 -49 7 l-42 0 -3 218
c-3 241 -9 221 66 217 27 -1 32 2 33 22 3 89 0 83 52 84 26 1 50 4 53 6 2 3 6
27 7 54 l2 49 51 3 51 3 -1 47 -1 47 58 3 c62 3 57 -4 60 80 1 25 4 27 56 32
48 4 450 5 638 1z m-1237 -434 l0 -113 -45 1 c-25 1 -49 -3 -52 -8 -8 -13 -10
-272 -2 -294 4 -12 18 -17 50 -17 l44 -1 5 -55 5 -55 54 0 55 0 -1 -107 -2
-108 53 0 52 0 1 -53 0 -54 -161 1 -161 1 -1 40 c-1 22 -2 46 -3 53 -1 10 -16
13 -53 12 -29 -1 -77 -1 -105 -1 l-53 1 0 55 0 54 -57 3 -58 3 2 35 c3 61 -1
66 -61 64 l-54 -1 2 51 1 51 -55 5 -55 5 1 38 c3 82 -1 76 59 73 l55 -3 0 54
c0 48 2 53 23 54 12 1 26 1 31 0 6 -1 20 0 32 3 19 5 23 13 22 44 -1 62 0 62
40 61 74 -3 72 -4 72 56 l0 54 108 3 107 3 -1 47 -1 47 51 4 c28 2 52 4 54 5
1 1 2 -49 2 -111z m1935 101 c9 -8 12 -77 5 -89 -4 -5 -29 -11 -56 -13 l-49
-2 -1 53 c-1 49 1 52 25 55 36 4 70 2 76 -4z m115 -317 c3 -1 5 -74 5 -163 l0
-163 -56 0 -56 0 0 -102 c0 -57 -2 -105 -5 -108 -3 -3 -52 -7 -109 -8 l-104
-2 0 -45 0 -45 -53 -3 -52 -3 2 48 3 48 50 5 50 5 0 105 0 105 55 1 55 0 1 55
1 54 49 1 49 1 3 103 c1 58 7 107 11 110 7 4 80 5 101 1z m213 0 c4 -1 7 -26
7 -56 l0 -55 53 0 53 0 2 -108 2 -108 -110 0 c-94 -1 -110 2 -111 15 -6 92 0
304 9 310 8 5 65 6 95 2z m-1945 -650 c9 -1 12 -16 10 -53 l-3 -53 -52 -2
c-58 -2 -53 -8 -56 74 -1 29 24 42 68 37 11 -1 26 -3 33 -3z"/>
<path d="M1733 2424 c-2 -6 -5 -31 -6 -55 l-2 -44 -51 -5 -51 -5 -1 -37 c0
-21 -1 -42 -1 -48 -1 -5 -26 -10 -56 -10 l-55 0 2 -272 3 -273 53 0 52 0 1
-35 c1 -19 1 -43 0 -52 -2 -16 9 -18 108 -18 l111 0 0 -55 0 -55 160 0 160 0
0 55 0 54 108 3 107 3 0 50 0 50 55 0 55 0 1 273 1 272 -57 0 -58 0 2 50 2 50
-52 0 -53 0 -3 57 -3 57 -264 0 c-185 1 -265 -2 -268 -10z m212 -316 c1 -72
-2 -109 -9 -110 -45 -6 -206 -1 -207 7 -3 32 -4 201 -1 208 2 4 51 6 110 5
l106 -3 1 -107z"/>
</g>
</svg>
